<?xml version="1.0" encoding="UTF-8" standalone="no"?>
<!-- Created with Inkscape (http://www.inkscape.org/) -->

<svg
   version="1.1"
   id="svg2"
   width="398.78668"
   height="346.84"
   viewBox="0 0 398.78668 346.84"
   sodipodi:docname="favicon2.eps"
   xmlns:inkscape="http://www.inkscape.org/namespaces/inkscape"
   xmlns:sodipodi="http://sodipodi.sourceforge.net/DTD/sodipodi-0.dtd"
   xmlns="http://www.w3.org/2000/svg"
   xmlns:svg="http://www.w3.org/2000/svg">
  <defs
     id="defs6" />
  <sodipodi:namedview
     id="namedview4"
     pagecolor="#ffffff"
     bordercolor="#000000"
     borderopacity="0.25"
     inkscape:showpageshadow="2"
     inkscape:pageopacity="0.0"
     inkscape:pagecheckerboard="0"
     inkscape:deskcolor="#d1d1d1" />
  <g
     id="g8"
     inkscape:groupmode="layer"
     inkscape:label="ink_ext_XXXXXX"
     transform="matrix(1.3333333,0,0,-1.3333333,0,346.84)">
    <g
       id="g10"
       transform="scale(0.1)">
      <path
         d="m 1049,2591.21 c -145,-54 -262,-216 -295,-408 -20,-116 -21,-286 -4,-409 13,-92 14,-94 23,-55 69,301 156,497 255,572 89,67 159,42 327,-118 122,-116 159,-139 225,-139 52,0 84,32 99,98 36,147 -143,352 -384,442 -75,27 -196,36 -246,17"
         style="fill:#3574c3;fill-opacity:1;fill-rule:nonzero;stroke:none"
         id="path12" />
      <path
         d="m 2043,2486.21 c -76,-27 -118,-64 -153,-136 -52,-106 -38,-228 36,-315 53,-62 105,-85 189,-86 109,0 192,53 239,154 32,70 29,180 -6,247 -63,121 -189,177 -305,136"
         style="fill:#3574c3;fill-opacity:1;fill-rule:nonzero;stroke:none"
         id="path14" />
      <path
         d="m 2960,1971.21 c -50,-169 -202,-364 -363,-468 -87,-56 -126,-54 -186,9 -36,37 -52,66 -75,132 -43,127 -73,185 -112,219 -117,104 -227,-79 -168,-280 40,-136 171,-312 268,-358 68,-34 155,-29 241,12 185,89 326,276 400,533 25,86 35,227 16,238 -4,3 -14,-14 -21,-37"
         style="fill:#3574c3;fill-opacity:1;fill-rule:nonzero;stroke:none"
         id="path16" />
      <path
         d="m 919,1507.21 c -38,-24 -59,-74 -59,-144 0,-72 22,-121 87,-190 l 45,-49 -95,-112 C 845,950.211 726,816.211 634,714.211 c -93,-102 -227,-253 -299,-335 -71,-83 -176,-199 -232,-260 C 46,59.2109 0,5.21094 0,1.21094 c 0,-5 26,6 58,22.99996 96,54 993,655.0001 1054,707.0001 32,26 91,76 132,110 l 73,62 49,-30 c 113,-71 121,-103 46,-177 -49,-49 -392,-250 -564,-332 -48,-23 -90,-46 -94,-51 -7,-12 111,-11 221,2 116,14 425,107 535,161 64,31 102,58 156,112 149,149 150,235 6,423.999 -75,98 -286,306 -387,382 -145,108 -298,156 -366,113"
         style="fill:#3574c3;fill-opacity:1;fill-rule:nonzero;stroke:none"
         id="path18" />
    </g>
  </g>
</svg>
